<svg id="b39ef49e-fea9-44bc-a670-832a8a7f4e63" data-name="Layer 1" xmlns="http://www.w3.org/2000/svg" width="0.742in" height="0.742in" viewBox="0 0 53.438 53.438"><path d="M47.812,0H5.625A5.6,5.6,0,0,0,0,5.625V47.812a5.6,5.6,0,0,0,5.625,5.626H47.812a5.642,5.642,0,0,0,5.626-5.626V5.625A5.6,5.6,0,0,0,47.812,0M26.625,32.562a8.128,8.128,0,0,0,5.437-2.312l2.5,2.875a13.812,13.812,0,0,1-8.624,3.313c-5.938,0-9.688-3.938-8.813-9.5s5.937-9.5,11.875-9.5a9.961,9.961,0,0,1,7.438,3.187l-3.5,2.875a5.755,5.755,0,0,0-4.563-2.188A6.728,6.728,0,0,0,21.5,26.938c-.5,3.312,1.5,5.624,5.125,5.624" fill="#e5422b"/></svg>