<svg width="100pt" height="100pt" viewBox="0 0 100 100">
 <path d="m52.336 2.8047 47.664 44.859c1.8711 1.8711 0.93359 4.6719-1.8711 4.6719h-12.148v43.926c0 1.8711-0.93359 2.8047-2.8047 2.8047h-22.43c-1.8711 0-2.8047-0.93359-2.8047-2.8047v-26.168c0-1.8711-0.93359-2.8047-2.8047-2.8047h-10.281c-1.8711 0-2.8047 0.93359-2.8047 2.8047v26.168c0 1.8711-0.93359 2.8047-2.8047 2.8047h-22.43c-1.8711 0-2.8047-0.93359-2.8047-2.8047v-43.926h-12.148c-2.8047 0-3.7383-2.8047-1.8711-4.6719l47.664-44.859c0.93359-0.93359 2.8047-0.93359 3.7383 0z" fill-rule="evenodd"/>
</svg>
