<svg width="100pt" height="100pt" viewBox="0 0 100 100">
 <path d="m88.398 93.102c-1.8984 2.8984-5.1992 4.6016-8.6992 4.3984-3.5-0.19922-8-0.69922-11.102-1.5-13.801-3.6016-28.102-12.199-40.199-24.301-12.102-12.102-20.699-26.398-24.301-40.199-0.80078-3.1016-1.1992-7.5-1.5-11-0.19922-3.3984 1.3984-6.6992 4.3008-8.6016l12.301-8.1992c3.1992-2.1016 7.5-1 9.1992 2.3984l10 19.301c1.3984 2.6992 0.69922 6.1016-1.6992 8l-9 7c3.6016 6.6992 7 12.102 13.602 18.602 6.1016 6.1016 11.398 9.6992 18.301 13.398l7.1016-9.1016c1.8984-2.3984 5.3008-3.1992 8-1.6992l19.398 10c3.3984 1.6992 4.5 6 2.3984 9.1992z"/>
</svg>
