<svg width="100pt" height="100pt" viewBox="0 0 100 100">
 <g>
  <path d="m32.621 35.113c0.45312 0.12109 0.92969 0.19141 1.4219 0.19141h0.98828c2.043 9.2227 7.9727 15.895 14.969 15.895 6.2812 0 11.691-5.3906 14.215-13.164 1.1875-0.83984 2.168-1.8047 2.8906-2.8633 0.058593-0.011719 0.11719-0.019531 0.17578-0.03125 2.2305-0.55078 3.875-2.4492 3.875-4.7188v-3.8281c0-2.2656-1.6445-4.168-3.875-4.7148v-0.59375c-0.003906-8.9805-7.7773-16.285-17.332-16.285-9.5547 0-17.328 7.3047-17.328 16.281v0.61719c-2.1758 0.58203-3.7734 2.4609-3.7734 4.6914v3.8281c0 2.2383 1.5977 4.1133 3.7734 4.6953zm17.328-26.715c6.957 0 12.703 4.8945 13.586 11.207-2.7734-4.8203-7.7891-8.0508-13.531-8.0508-5.8398 0-10.93 3.332-13.672 8.2852 0.76562-6.4258 6.5742-11.441 13.617-11.441zm-11.445 23.945c0-0.003906-1.5625-9.2812 1.7383-10.586 0 0 4.5508 2.2109 9.7578 2.3555 5.207-0.14453 9.7617-2.3555 9.7617-2.3555 3.3008 1.3047 1.7344 10.582 1.7344 10.586 0.8125-0.56641 1.5586-0.86328 2.168-1.0195v0.22266c-0.10547 1.0312-0.26172 2.0312-0.46875 3.0078-2.1562 1.9492-5.8594 3.3555-10.109 3.6133-0.39453-0.33594-0.89453-0.54297-1.4531-0.54297h-3.0039c-1.25 0-2.2656 1.0156-2.2656 2.2656s1.0156 2.2617 2.2656 2.2617h3.0039c0.60938 0 1.1602-0.24219 1.5664-0.63672 3.1484-0.17578 6.0195-0.88281 8.4062-1.9805-2.457 5.5586-6.7344 9.2461-11.605 9.2461-7 0-12.785-7.6055-13.691-17.465 0.61719 0.15234 1.3711 0.45312 2.1953 1.0273z"/>
  <path d="m84.812 67.828h-3.6016c-1.0312-9.7656-8.8516-17.504-18.656-18.398-0.082032 3.7695-5.668 6.8125-12.551 6.8125-6.8828 0-12.469-3.043-12.551-6.8125-9.8047 0.89453-17.629 8.6328-18.656 18.398h-3.6016c-3.7461 0-6.793 3.0469-6.793 6.793v13.586c0 3.7461 3.0469 6.793 6.793 6.793h69.621c3.7461 0 6.793-3.0469 6.793-6.793l-0.007813-13.586c0.003907-3.7422-3.043-6.793-6.7891-6.793zm-67.953 12.145 2.5039-0.36328c0.39453-0.058594 0.85938-0.39453 1.0312-0.75l0.63672-1.2891 0.48438-0.98047c0.17578-0.35547 0.46484-0.35547 0.63672 0l1.1211 2.2695c0.17578 0.35547 0.64453 0.69141 1.0352 0.75l2.5078 0.36328c0.39453 0.058594 0.48047 0.33203 0.19531 0.60547l-0.070313 0.070313-1.7422 1.6953c-0.28516 0.27734-0.46094 0.82422-0.39453 1.2148l0.42969 2.4961c0.066406 0.39062-0.16406 0.5625-0.51562 0.375l-2.2422-1.1758c-0.35156-0.1875-0.92578-0.1875-1.2773 0l-2.2422 1.1758c-0.35156 0.1875-0.58594 0.015624-0.51562-0.375l0.42969-2.4961c0.066406-0.39062-0.10938-0.9375-0.39453-1.2148l-1.8125-1.7656c-0.28516-0.27344-0.19922-0.54688 0.19531-0.60547zm50.191 3.5898 0.42969 2.4961c0.066406 0.39062-0.16406 0.5625-0.51562 0.375l-2.2422-1.1758c-0.35156-0.1875-0.92578-0.1875-1.2734 0l-2.2422 1.1758c-0.35156 0.1875-0.58594 0.015625-0.51953-0.375l0.42969-2.4961c0.066406-0.39062-0.10938-0.9375-0.39453-1.2148l-0.95703-0.93359-0.85547-0.83594c-0.28125-0.27734-0.19531-0.55078 0.19531-0.60547l2.5078-0.36328c0.39453-0.058594 0.85938-0.39453 1.0312-0.75l1.1211-2.2695c0.17578-0.35547 0.46484-0.35547 0.63672 0l1.1211 2.2695c0.17578 0.35547 0.64453 0.69141 1.0352 0.75l2.5078 0.36328c0.39062 0.058594 0.48047 0.33203 0.19531 0.60547l-0.6875 0.66797-1.1289 1.0977c-0.28516 0.28125-0.46094 0.82812-0.39453 1.2188zm-14.082 0 0.42969 2.4961c0.066406 0.39062-0.16406 0.5625-0.51563 0.375l-2.2422-1.1758c-0.35156-0.1875-0.92578-0.1875-1.2773 0l-2.2422 1.1758c-0.35156 0.1875-0.58594 0.015625-0.51562-0.375l0.42969-2.4961c0.066406-0.39062-0.10938-0.9375-0.39453-1.2148l-0.95703-0.93359-0.85547-0.83594c-0.28125-0.27734-0.19531-0.55078 0.19531-0.60547l2.5078-0.36328c0.39453-0.058594 0.85547-0.39453 1.0312-0.75l1.1211-2.2695c0.17578-0.35547 0.46484-0.35547 0.63672 0l1.1211 2.2695c0.17578 0.35547 0.64453 0.69141 1.0352 0.75l2.5078 0.36328c0.39453 0.058594 0.48047 0.33203 0.19531 0.60547l-0.85547 0.83594-0.95703 0.93359c-0.28906 0.27734-0.46484 0.82422-0.39844 1.2148zm-14.082 0 0.42969 2.4961c0.066406 0.39062-0.16406 0.5625-0.51562 0.375l-2.2422-1.1758c-0.35156-0.1875-0.92578-0.1875-1.2734 0l-2.2422 1.1758c-0.35156 0.1875-0.58594 0.015625-0.51953-0.375l0.42969-2.4961c0.066406-0.39062-0.10938-0.9375-0.39453-1.2148l-1.1289-1.0977-0.6875-0.66797c-0.28125-0.27734-0.19531-0.55078 0.19531-0.60547l2.5078-0.36328c0.39453-0.058593 0.85938-0.39453 1.0312-0.75l1.1211-2.2695c0.17578-0.35547 0.46094-0.35547 0.63672 0l1.1211 2.2695c0.17578 0.35547 0.64453 0.69141 1.0352 0.75l2.5078 0.36328c0.39453 0.058594 0.48047 0.33203 0.19531 0.60547l-0.85547 0.83594-0.95703 0.93359c-0.28516 0.27344-0.46094 0.82031-0.39453 1.2109zm44.453-2.9805-1.8125 1.7656c-0.28516 0.27734-0.46094 0.82422-0.39453 1.2148l0.42969 2.4961c0.066406 0.39062-0.16406 0.5625-0.51562 0.375l-2.2422-1.1758c-0.35156-0.1875-0.92578-0.1875-1.2773 0l-2.2422 1.1758c-0.35156 0.1875-0.58594 0.015625-0.51953-0.375l0.42969-2.4961c0.066407-0.39062-0.10937-0.9375-0.39453-1.2148l-1.7422-1.6953-0.070313-0.070313c-0.28125-0.27734-0.19531-0.55078 0.19531-0.60547l2.5078-0.36328c0.39453-0.058593 0.85938-0.39453 1.0312-0.75l1.1211-2.2695c0.17578-0.35547 0.46484-0.35547 0.63672 0l0.48438 0.98047 0.63672 1.2891c0.17578 0.35547 0.64453 0.69141 1.0352 0.75l2.5078 0.36328c0.39062 0.054688 0.48047 0.32813 0.19531 0.60547z"/>
 </g>
</svg>
